<?xml version="1.0" encoding="UTF-8"?><svg id="Layer_2" xmlns="http://www.w3.org/2000/svg" viewBox="0 0 1121.57 294.35"><defs><style>.cls-1{fill:#1d1d1b;font-family:DMSans-Bold, 'DM Sans';font-weight:700;}.cls-2{letter-spacing:-.03em;}.cls-3{letter-spacing:0em;}.cls-4{font-family:DMSans-Regular, 'DM Sans';}.cls-4,.cls-5{fill:#283478;}.cls-5,.cls-6,.cls-7{stroke-width:0px;}.cls-6{fill:#c1dff0;}.cls-7{fill:#fff;}.cls-8{letter-spacing:-.01em;}.cls-9{font-size:108px;}</style></defs><g id="Layer_1-2"><circle class="cls-5" cx="147.17" cy="147.17" r="147.17"/><path class="cls-7" d="m197.73,181.11c-.92,4.43-1.36,7.6-1.96,10.69h-16.04c1.02-4.68,1.62-7.41,2.86-13.09l8.93-40.82c1.63-7.51,3.77-14.44,5.91-19.45,4.55-10.49,12.87-15.31,26.44-15.31s22.32,7.12,22.9,18.1c.32,6.06-1.6,11.74-5.35,15.4-2.65,2.7-5.09,3.95-9.65,5.01,3.62,1.16,5.51,2.21,7.74,4.33,3.35,3.27,5.33,8.09,5.61,13.38.36,6.83-2.09,13.48-6.39,17.71-4.4,4.24-11.02,6.45-18.91,6.45-4.62,0-8.21-.58-11.75-1.93-4.03-1.54-6.12-2.79-9.14-5.39l-1.19,4.91Zm3.58-18.1c5.29,5.49,9.94,7.89,15.72,7.89,8.18,0,13.31-5.01,12.91-12.71-.16-3.08-2.07-6.45-4.56-8.09-2.69-1.73-7.28-2.98-11.13-2.98-1.25,0-1.83,0-3.46.19l2.62-12.42c1.74.1,2.51.19,3.38.19,3.18,0,6.51-.67,9.24-1.93,4.14-1.73,6.63-5.68,6.42-9.82-.26-4.91-3.98-7.99-9.56-7.99-9.05,0-13.06,6.06-17.06,25.41l-4.51,22.24Z"/><path class="cls-7" d="m102.16,156.96c.76,7.19,1.66,9.01,4.29,9.01,2.23,0,4.38-1.62,6.79-4.76l6.82,10.02c-4.81,5.26-9.92,7.69-16.4,7.69-3.85,0-6.89-1.01-9.14-3.14-1.68-1.52-2.55-3.04-3.52-6.48-2.95,3.75-4.6,5.36-7.17,6.88-3.52,2.13-8.06,3.24-13.02,3.24-15.39,0-25.37-9.31-27.03-25.1-1.07-10.22,1.49-20.45,6.92-27.53,5.7-7.39,14.49-11.44,24.81-11.44,7.29,0,13.07,2.02,16.61,5.87,2.29,2.53,3.49,5.26,4.59,10.93l2.32-5.87c1.43-3.73,2.13-5.9,3.06-8.91h14.37c-.88,2.82-1.03,3.37-2.07,6.48-2.2,6.32-3.23,8.85-3.99,11.08l-8.54,19.29.29,2.73Zm-16.28-16.2c-.97-9.21-3.87-12.75-10.35-12.75-5.16,0-9.53,2.73-12.61,8.1-2.66,4.56-4.06,11.44-3.47,17.11.55,5.26,2.73,9.62,5.77,11.54,1.62,1.01,4.13,1.72,6.36,1.72,3.54,0,6.15-1.21,8.97-4.25,1.1-1.11,2.25-2.63,3.38-4.45,1.06-1.52,2.67-4.45,2.66-4.55-.06-3.44-.34-9.01-.7-12.45Z"/><path class="cls-6" d="m172.03,229.46c-2.53,9.34-4.67,13.73-6,15.76-.48.73-1.56.73-2.03-.01,0,0,0-.01-.01-.02-.01-.02-.02-.04-.03-.06-1.71-3.11-4.06-9.94-5.69-24.87-.4-3.66-.73-7.57-1-11.69-1.17-17.65-1.29-39.08-1.29-61.3v-5c0-25.62.01-52.12-1.68-71.76-.95-10.95-2.35-19.11-4.3-24.93-1.26-3.76-2.76-6.63-4.59-8.79-3.31-3.9-7.06-4.71-9.62-4.71-4.72,0-8.23,2.53-10.82,5.76-1.28,1.59-2.33,3.35-3.2,5.06-1.31,2.6-2.19,5.08-2.76,6.67-3,8.45-5.49,19.68-8.38,32.7-1.94,8.74-4,17.99-6.39,27.26h14.08c2.08-8.3,3.9-16.5,5.64-24.3,2.48-11.18,4.63-20.83,6.98-28.28,1.5-4.76,2.78-7.54,3.72-9.17.38-.65,1.34-.59,1.64.1.07.17.15.35.23.54.35.88.74,2,1.13,3.42.12.48.24,1,.36,1.56.97,4.57,1.68,10.57,2.15,18.36.91,15.01.8,34.06.68,54.22-.04,6.96-.09,14.16-.09,21.29v4.38c0,26.84-.01,52.2,2.13,71.82,1.21,11.09,3.03,19.37,5.56,25.34,4.73,11.14,11.79,13.48,16.89,13.48,6.76,0,11.26-4.77,13.85-8.77,2.44-3.78,4.65-9.01,6.74-15.98,3.04-10.1,5.59-22.97,8.16-36.84h-15.83c-2.01,10.71-4.01,20.63-6.21,28.77Z"/><text class="cls-9" transform="translate(359.21 136.13)"><tspan class="cls-1"><tspan x="0" y="0">Maar</tspan><tspan class="cls-8" x="262.76" y="0">t</tspan><tspan x="306.83" y="0">en Delen</tspan></tspan><tspan class="cls-4"><tspan class="cls-2" x="0" y="100">A</tspan><tspan class="cls-3" x="68.8" y="100">dvies</tspan></tspan></text></g></svg>